<?xml version="1.0" encoding="UTF-8"?><!-- Generator: Péguy Vectors - v1.0 --><!DOCTYPE svg PUBLIC "-//W3C//DTD SVG 1.1//EN" "http://www.w3.org/Graphics/SVG/1.1/DTD/svg11.dtd"><svg version="1.0" x="0px" y="0px" xmlns="http://www.w3.org/2000/svg" width="1000px" height="1000px" viewBox="0 0 1000 1000"><defs></defs><g><g transform="translate(500,500) "><path d="M -500 -500 L 500 -500 L 500 500 L -500 500 L -500 -500 Z" style="fill: rgb(0, 0, 0); stroke: none; stroke-width: 0px;"></path><path d="M -50 -50 L 50 -50 L 50 50 L -50 50 L -50 -50 Z" transform="translate(400,0) rotate(0) " style="fill: rgb(255,0,0); stroke: none; stroke-width: 0px;"></path><path d="M -50 -50 L 50 -50 L 50 50 L -50 50 L -50 -50 Z" transform="translate(346.4101615137755,199.99999999999997) rotate(30) " style="fill: rgb(255,255,0); stroke: none; stroke-width: 0px;"></path><path d="M -50 -50 L 50 -50 L 50 50 L -50 50 L -50 -50 Z" transform="translate(200.00000000000006,346.41016151377545) rotate(60) " style="fill: rgb(0,255,0); stroke: none; stroke-width: 0px;"></path><path d="M -50 -50 L 50 -50 L 50 50 L -50 50 L -50 -50 Z" transform="translate(2.4492935982947064e-14,400) rotate(90) " style="fill: rgb(0,255,255); stroke: none; stroke-width: 0px;"></path><path d="M -50 -50 L 50 -50 L 50 50 L -50 50 L -50 -50 Z" transform="translate(-199.99999999999991,346.4101615137755) rotate(120) " style="fill: rgb(0,0,255); stroke: none; stroke-width: 0px;"></path><path d="M -50 -50 L 50 -50 L 50 50 L -50 50 L -50 -50 Z" transform="translate(-346.4101615137754,200.00000000000014) rotate(150) " style="fill: rgb(255,0,255); stroke: none; stroke-width: 0px;"></path><path d="M -50 -50 L 50 -50 L 50 50 L -50 50 L -50 -50 Z" transform="translate(-400,4.898587196589413e-14) rotate(180) " style="fill: rgb(255,0,0); stroke: none; stroke-width: 0px;"></path><path d="M -50 -50 L 50 -50 L 50 50 L -50 50 L -50 -50 Z" transform="translate(-346.4101615137755,-199.9999999999999) rotate(210) " style="fill: rgb(255,255,0); stroke: none; stroke-width: 0px;"></path><path d="M -50 -50 L 50 -50 L 50 50 L -50 50 L -50 -50 Z" transform="translate(-200.00000000000017,-346.41016151377534) rotate(240) " style="fill: rgb(0,255,0); stroke: none; stroke-width: 0px;"></path><path d="M -50 -50 L 50 -50 L 50 50 L -50 50 L -50 -50 Z" transform="translate(-7.347880794884119e-14,-400) rotate(270) " style="fill: rgb(0,255,255); stroke: none; stroke-width: 0px;"></path><path d="M -50 -50 L 50 -50 L 50 50 L -50 50 L -50 -50 Z" transform="translate(199.99999999999974,-346.4101615137756) rotate(300) " style="fill: rgb(0,0,255); stroke: none; stroke-width: 0px;"></path><path d="M -50 -50 L 50 -50 L 50 50 L -50 50 L -50 -50 Z" transform="translate(346.41016151377534,-200.00000000000017) rotate(330) " style="fill: rgb(255,0,255); stroke: none; stroke-width: 0px;"></path></g></g></svg>